<svg id="Layer_0_Image" data-name="Layer 0 Image" xmlns="http://www.w3.org/2000/svg" viewBox="0 0 461.96 110.55"><defs><style>.cls-1{fill:#4075b0;}.cls-2{fill:#cbcccd;}.cls-3{fill:#c9cacc;}</style></defs><path class="cls-1" d="M728.45,224.32c1.78-3.22,2.69-3.45,5.08-.89a9.07,9.07,0,0,1,2.44,4c1.63,7.79,3.26,15.6,4.43,23.47a96,96,0,0,1-1.25,34.45c-2.26,10.59-10.61,18.57-21.39,19.36-7,.52-14,.14-19.82-4.8-1.14-1-2.89-1.8-3.21-3-.55-2.05-.19-4.34-.22-6.53,2.39.3,4.77.59,7.15.93.2,0,.35.33.53.5,1.75,1.74,1.66,5.4,5.11,5.32,4.53-.11,9.15,0,13.56-.87,7.08-1.36,10.17-6.86,12.24-13.21,3.27-10,2.47-20.1.93-30.23-.22-1.46-.54-2.91-.92-4.9a16.84,16.84,0,0,0-2.13,2,89.29,89.29,0,0,1-23,21.07,27.68,27.68,0,0,1-10.09,3.46c-4,.69-9.44-4.78-9.92-10.07-.33-3.64.42-7.38.76-11.06.94-10.09,5.87-18.39,12-26,5.15-6.35,16.25-8.77,22-5.14a16.45,16.45,0,0,1,2,2.6c.66,1.3,1.8,3.13,1.34,4-.57,1.13-2.55,1.53-3.93,2.25L721,229.24c-2.16-.75-4.55-2.52-6.42-2.07-5.69,1.36-9.79,5.41-13.32,9.94-5,6.43-7,14.18-8.65,21.88-.61,2.76-.83,6.59,3.45,7.77,5.06.28,8.93-2.24,12.46-5.43,5.62-5.09,11.69-9.82,16.59-15.55,3.16-3.7,6-8.46,4.66-14.11Z" transform="translate(-279.44 -194.34)"/><path class="cls-1" d="M587,240.72c1.16-1,1.84-1.34,2.16-1.88,2.4-4.16,4.67-8.38,7.1-12.52,1.26-2.16,2.35-4.66,4.2-6.15,2.4-1.93,4.52-5.63,8.61-3.45A6.57,6.57,0,0,1,612,219.3c2.58,5.92,6.06,11.77,7,18a70,70,0,0,1-.31,22.18c-2.17,12.84-12.77,19.13-25.17,16-9.46-2.35-14.94-9.67-14.65-20.78.26-9.76,1.56-19.5,1.84-29.27.21-7.18-.46-14.38-.77-21.58-.1-2.47-.42-4.95-.32-7.42a3,3,0,0,1,1.77-2.08,2.63,2.63,0,0,1,2.39.94,28.07,28.07,0,0,1,2.82,7.08c2.09,11.22.53,22.48.11,33.74C586.71,237.42,586.88,238.7,587,240.72Zm.91,21.13c3.16,2.64,5.38,4.61,7.74,6.38a3.61,3.61,0,0,0,2.75.71c2.42-.74,5-1.43,7.06-2.85,5.14-3.62,7.4-8.78,7.66-15.15.35-8.35-.23-16.44-4.35-23.88-1.95-3.51-2.57-3.32-5.33-.48a38.75,38.75,0,0,0-9.34,16.27C592.09,249.54,589.78,256.14,587.91,261.85Z" transform="translate(-279.44 -194.34)"/><path class="cls-1" d="M368.84,222.48a13.23,13.23,0,0,1,1.08,10.13c-1.32,4.74-1.55,9.8-2.16,14.73-.52,4.19-1.28,8.4-1.23,12.6,0,2.55,1.43,5.08,2.16,7.64.55,1.93,1.58,4,1.28,5.78-.15.89-3.34,2.32-4.23,1.83-2-1.07-4.31-3-4.74-5-1-4.44-.86-9.11-1.19-13.68-.07-.92-.16-1.84-.33-3.78-1.51,1.41-2.39,2.12-3.14,2.95-5.06,5.64-10,11.36-15.16,16.93-1.73,1.89-4,4.47-6.63,2.62-3-2.07-6.74-3.76-6.93-8.56-.27-6.69,1.25-13.09,2-19.62.84-7.05,3.76-13.37,5.5-20.06,2.19-8.38,9.09-11.41,17.55-8.87,3.15,1,6.11,2.59,9.26,3.55C363.87,222.29,366,222.19,368.84,222.48Zm-35.27,44.77c7.06-3.3,11-8.69,14.89-13.94,4.46-5.95,9.48-11.47,12.19-18.72,1.41-3.78.81-5.59-2.35-7.54s-10.31-2.92-12.76-1.39a14.57,14.57,0,0,0-6.49,9.61c-1.76,7.57-3.83,15.08-5.38,22.69C333.09,260.79,333.57,263.84,333.57,267.25Z" transform="translate(-279.44 -194.34)"/><path class="cls-1" d="M661.52,253.27c-2.63,3.18-5.15,6.45-7.91,9.51A151.76,151.76,0,0,1,642.71,274c-1.21,1.09-4.18,1.89-5.23,1.17-2.85-1.92-6.49-3.58-6.8-7.84-.48-6.79,1.14-13.35,1.9-20,.79-6.82,3.85-12.8,5.25-19.37,1.84-8.57,9-12.6,18-9.72,3.14,1,6.1,2.6,9.26,3.54,1.91.57,4,.39,6.6.59a12.48,12.48,0,0,1,1.28,10c-1.28,4.76-1.6,9.79-2.2,14.72-.43,3.58-.32,7.26-1,10.77a12.45,12.45,0,0,0,2.17,10.18,7.46,7.46,0,0,1,1,5.41c-.22.92-3,2.21-4,1.78-2-.92-4.51-2.62-4.88-4.4-1-4.7-.89-9.61-1.24-14.43-.07-.91-.22-1.8-.33-2.7Zm-25,14.36c1.47-.91,2-1.23,2.46-1.52,5.43-3.18,9-8.23,12.73-13,5-6.36,10.32-12.56,12.71-20.5.32-1.08.07-3-.68-3.62-7.34-6.3-18.27-6.38-21.31,5.15-2.11,8-4.11,16-5.82,24.12C636,261,636.49,263.91,636.49,267.63Z" transform="translate(-279.44 -194.34)"/><path class="cls-1" d="M509.22,270.67c-1.7-3.59-4.07-7-5-10.8-1.71-7.17-2.57-14.54-4-23.09a79,79,0,0,0-5.53,6.44c-1.62,2.36-2.72,5.06-4.3,7.45-3.83,5.76-7.8,11.44-11.74,17.12a19.61,19.61,0,0,1-3,3.79c-1.55,1.33-4.52,3.6-4.93,3.24-2-1.76-4.6-4.2-4.72-6.51-.35-6.84.44-13.73.64-20.6.17-5.58.07-11.16.2-16.74a26.06,26.06,0,0,1,.73-4.13c3.73-.19,5.66,1.49,5.84,4.44.37,6,.42,12.09.43,18.14,0,3.22-.36,6.43-.56,9.64l.94.53c1.46-1.66,3-3.24,4.35-5a72.66,72.66,0,0,0,5.21-7.41c2.31-3.95,3.91-8.36,6.59-12,2.56-3.48,6-6.33,9.34-9.19.5-.44,2.56.25,3.4,1,4.15,3.62,4.21,8.76,4.77,13.71.91,8,1.8,16,5.24,23.73,5.07-.79,7.79-4.25,10.4-7.9,1-1.4,1.92-3.07,3.3-3.91.92-.56,2.6.12,3.93.25C530.3,260.44,519.84,273.87,509.22,270.67Z" transform="translate(-279.44 -194.34)"/><path class="cls-1" d="M424.14,236.16c1.27-1.27,3.05-2.31,3.72-3.84a30,30,0,0,1,9.9-12.18c4.65-3.5,9.05-1,11.63,2.12,3.61,4.31,3.85,9.23,1.61,14.39C447.37,245,440.56,249,432,250.6a5.45,5.45,0,0,0-2.42.71c-2.73,2.3-3.74,14.49-1.51,17.16,1.93,2.32,8.66,3.66,11.54,1.83,3.5-2.23,6.64-5,10-7.44a28.16,28.16,0,0,1,3.92-2c.58,1.79,1.22,3.56,1.71,5.37.09.37-.35.91-.59,1.35-3.86,6.88-13,13.13-22.13,11.52-7.73-1.38-13.4-10.12-12.27-19.17.72-5.75,1.61-11.48,2.25-17.23a61.76,61.76,0,0,0,0-6.94Zm6,4.71c5.81.74,14.69-6.2,15.68-11.58.45-2.49-1.25-4.13-3.42-2.95a21.59,21.59,0,0,0-6.54,5C433.64,234.12,432.14,237.46,430.14,240.87Z" transform="translate(-279.44 -194.34)"/><path class="cls-1" d="M294.9,271.19l-.68-.7L292.63,269c-3.94-6.37-4.88-13.43-4.67-20.73.09-3.08.47-6.16.34-9.22,0-.72-1.53-1.56-2.5-2-2.91-1.36-6.15-2.13-6.35-6.37-.1-2.18.52-3,2.61-2.94l7.46.36c-.48-4.9-.55-9.53-1.48-14-.69-3.32-.93-4.57,1.59-7.74,6.12.74,7.18,4.85,6.57,12.74-.22,2.82-.39,5.64-.62,8.94h19.89c1.37,0,3-.41,4.06.14a6.63,6.63,0,0,1,2.88,3.33c.18.45-1.51,2.27-2.52,2.45-7,1.22-14,2.08-21,3.3-1.43.25-3.82,1.58-3.82,2.41,0,7.2-.18,14.49.88,21.58.8,5.35,5.45,7.42,10.88,6.23,2.76-.6,5.49-1.36,8.27-1.84a8.07,8.07,0,0,1,2.84.59c1.46,2.5.73,4.17-1.91,5.19C309,274.13,301.91,275.33,294.9,271.19Z" transform="translate(-279.44 -194.34)"/><path class="cls-1" d="M542.33,269.07a35.75,35.75,0,0,1-4.23-22.56,25.42,25.42,0,0,0,0-7.39c-.15-.92-1.65-1.87-2.73-2.35-2.7-1.21-5.65-1.77-6-5.71-.24-2.54.33-3.53,2.84-3.37,2.1.13,4.21.23,7.11.39-.45-4.88-.5-9.51-1.42-14-.71-3.41-1-4.51,1.51-7.77,6.27.67,7.2,5.05,6.63,12.68-.22,2.82-.4,5.65-.64,9h21c1.13,0,2.51-.36,3.31.15a5.81,5.81,0,0,1,2.53,3.26c.13.68-1.48,2.32-2.49,2.5-7,1.23-14,2.08-21,3.31-1.44.25-3.84,1.56-3.84,2.39,0,7.21-.19,14.51.88,21.6.81,5.38,5.41,7.43,10.88,6.24,2.76-.61,5.49-1.37,8.27-1.85.88-.15,1.89.38,2.84.59,1.46,2.51.71,4.17-1.92,5.19-7.08,2.74-14.13,3.93-21.14-.2l-.69-.71Z" transform="translate(-279.44 -194.34)"/><path class="cls-1" d="M395.66,266.67c4.51-2.69,9.1-5.23,13.48-8.11,3.07-2,5.34-1.83,6.09,1.31a4.75,4.75,0,0,1-1.11,4c-5.32,4.7-10.79,9.25-17.92,11.08-3.34.85-8-2.92-8.27-7.63-.45-8.12-.47-16.27-.34-24.39.16-9.89.65-19.76,1-29.64.13-3.48.17-7,.62-10.41a4.06,4.06,0,0,1,2.32-2.69,3.36,3.36,0,0,1,3,1.15c1,1.59,2.24,3.56,2.17,5.31-.47,10.78-1.5,21.53-1.9,32.31-.34,8.91-.07,17.84-.07,26.75Z" transform="translate(-279.44 -194.34)"/><path class="cls-2" d="M292.63,269l1.59,1.52Z" transform="translate(-279.44 -194.34)"/><path class="cls-3" d="M542.33,269.07l1.66,1.41Z" transform="translate(-279.44 -194.34)"/></svg>